<svg xmlns="http://www.w3.org/2000/svg" width="207" height="22" viewBox="0 0 207 22"><defs><linearGradient id="crisp-grad" gradientUnits="userSpaceOnUse" x1="6" y1="0" x2="202.578125" y2="0"><stop offset="0%" stop-color="#4F46E5"/><stop offset="100%" stop-color="#A855F7"/></linearGradient></defs><path d="M13.578 15L10.461 15L6.383 3.359L9.031 3.359L10.891 8.977Q11.227 10.039 11.570 11.313L11.570 11.313Q11.797 12.148 12.031 13.086L12.031 13.086Q12.273 12.141 12.484 11.305L12.484 11.305Q12.813 10.039 13.133 8.977L13.133 8.977L14.930 3.359L17.563 3.359L13.578 15ZM21.383 15.172L21.383 15.172Q20.555 15.172 19.895 14.879Q19.234 14.586 18.855 14.004Q18.477 13.422 18.477 12.555L18.477 12.555Q18.477 11.828 18.746 11.336Q19.016 10.844 19.480 10.547Q19.945 10.250 20.535 10.094Q21.125 9.938 21.773 9.875L21.773 9.875Q22.531 9.797 22.996 9.730Q23.461 9.664 23.676 9.520Q23.891 9.375 23.891 9.094L23.891 9.094L23.891 9.055Q23.891 8.680 23.734 8.422Q23.578 8.164 23.270 8.027Q22.961 7.891 22.523 7.891L22.523 7.891Q22.070 7.891 21.734 8.027Q21.398 8.164 21.188 8.391Q20.977 8.617 20.875 8.898L20.875 8.898L18.727 8.547Q18.953 7.781 19.477 7.250Q20 6.719 20.777 6.438Q21.555 6.156 22.531 6.156L22.531 6.156Q23.234 6.156 23.898 6.324Q24.563 6.492 25.090 6.844Q25.617 7.195 25.926 7.762Q26.234 8.328 26.234 9.117L26.234 9.117L26.234 15L24.016 15L24.016 13.789L23.938 13.789Q23.727 14.195 23.375 14.504Q23.023 14.813 22.527 14.992Q22.031 15.172 21.383 15.172ZM22.047 13.523L22.047 13.523Q22.602 13.523 23.020 13.305Q23.438 13.086 23.672 12.711Q23.906 12.336 23.906 11.875L23.906 11.875L23.906 10.930Q23.805 11.008 23.594 11.070Q23.383 11.133 23.125 11.180Q22.867 11.227 22.617 11.266Q22.367 11.305 22.172 11.328L22.172 11.328Q21.742 11.391 21.414 11.531Q21.086 11.672 20.906 11.902Q20.727 12.133 20.727 12.492L20.727 12.492Q20.727 12.828 20.898 13.059Q21.070 13.289 21.367 13.406Q21.664 13.523 22.047 13.523ZM31.242 15.109L31.242 15.109Q30.336 15.109 29.656 14.715Q28.977 14.320 28.605 13.582Q28.234 12.844 28.234 11.820L28.234 11.820L28.234 6.266L30.578 6.266L30.578 11.414Q30.578 12.227 31 12.688Q31.422 13.148 32.156 13.148L32.156 13.148Q32.656 13.148 33.039 12.934Q33.422 12.719 33.637 12.309Q33.852 11.898 33.852 11.320L33.852 11.320L33.852 6.266L36.203 6.266L36.203 15L33.984 15L33.961 13.180Q33.625 14.023 33.039 14.516L33.039 14.516Q32.328 15.109 31.242 15.109ZM38.195 3.359L40.539 3.359L40.539 15L38.195 15L38.195 3.359ZM45.234 6.266L46.867 6.266L46.867 8.055L45.234 8.055L45.234 12.445Q45.234 12.859 45.418 13.059Q45.602 13.258 46.031 13.258L46.031 13.258Q46.164 13.258 46.406 13.223Q46.648 13.188 46.773 13.156L46.773 13.156L47.109 14.914Q46.719 15.031 46.332 15.078Q45.945 15.125 45.594 15.125L45.594 15.125Q44.281 15.125 43.586 14.484Q42.891 13.844 42.891 12.648L42.891 12.648L42.891 8.055L41.688 8.055L41.688 6.266L42.891 6.266L42.891 4.188L45.234 4.188L45.234 6.266ZM48.391 3.359L50.734 3.359L50.734 15L48.391 15L48.391 3.359ZM52.664 18.094L52.664 18.094L53.203 16.328L53.492 16.398Q53.961 16.523 54.328 16.469Q54.695 16.414 54.918 16.172Q55.141 15.930 55.188 15.492L55.188 15.492L55.250 15.023L51.969 6.266L54.461 6.266L55.930 10.797Q56.195 11.656 56.367 12.516L56.367 12.516Q56.422 12.805 56.484 13.102L56.484 13.102Q56.555 12.805 56.625 12.508L56.625 12.508Q56.836 11.648 57.117 10.797L57.117 10.797L58.648 6.266L61.109 6.266L57.398 16.031Q57.133 16.734 56.719 17.250Q56.305 17.766 55.688 18.047Q55.070 18.328 54.195 18.328L54.195 18.328Q53.727 18.328 53.320 18.262Q52.914 18.195 52.664 18.094ZM64.031 15.148L64.031 15.148Q63.461 15.148 63.070 14.762Q62.680 14.375 62.680 13.805L62.680 13.805Q62.680 13.234 63.070 12.848Q63.461 12.461 64.031 12.461L64.031 12.461Q64.602 12.461 64.992 12.848Q65.383 13.234 65.383 13.805L65.383 13.805Q65.383 14.375 64.992 14.762Q64.602 15.148 64.031 15.148ZM64.031 9.352L64.031 9.352Q63.461 9.352 63.070 8.965Q62.680 8.578 62.680 8.008L62.680 8.008Q62.680 7.438 63.070 7.051Q63.461 6.664 64.031 6.664L64.031 6.664Q64.602 6.664 64.992 7.051Q65.383 7.438 65.383 8.008L65.383 8.008Q65.383 8.578 64.992 8.965Q64.602 9.352 64.031 9.352ZM79.352 15L71.547 15L71.547 3.359L79.336 3.359L79.336 5.336L73.930 5.336L73.930 8.148L78.930 8.148L78.930 10.094L73.930 10.094L73.930 13.023L79.352 13.023L79.352 15ZM83.023 15L80.539 15L83.352 10.516L80.711 6.266L83.242 6.266L84.031 7.641Q84.406 8.320 84.711 8.977L84.711 8.977Q84.789 9.164 84.875 9.352L84.875 9.352Q84.961 9.172 85.047 8.984L85.047 8.984Q85.344 8.320 85.734 7.641L85.734 7.641L86.555 6.266L89.039 6.266L86.344 10.547L89.164 15L86.648 15L85.680 13.359Q85.297 12.688 84.992 12.023L84.992 12.023Q84.906 11.844 84.820 11.664L84.820 11.664Q84.742 11.844 84.664 12.023L84.664 12.023Q84.367 12.688 83.992 13.359L83.992 13.359L83.023 15ZM92.836 18.266L90.492 18.266L90.492 6.266L92.797 6.266L92.797 7.734L92.906 7.734Q93.070 7.391 93.371 7.023Q93.672 6.656 94.164 6.406Q94.656 6.156 95.398 6.156L95.398 6.156Q96.367 6.156 97.172 6.656Q97.977 7.156 98.457 8.156Q98.938 9.156 98.938 10.648L98.938 10.648Q98.938 12.102 98.469 13.105Q98 14.109 97.195 14.629Q96.391 15.148 95.383 15.148L95.383 15.148Q94.672 15.148 94.180 14.906Q93.688 14.664 93.379 14.309Q93.070 13.953 92.906 13.602L92.906 13.602L92.836 13.602L92.836 18.266ZM94.664 13.266L94.664 13.266Q95.273 13.266 95.691 12.930Q96.109 12.594 96.324 12Q96.539 11.406 96.539 10.641L96.539 10.641Q96.539 9.875 96.324 9.289Q96.109 8.703 95.695 8.367Q95.281 8.031 94.664 8.031L94.664 8.031Q94.063 8.031 93.641 8.355Q93.219 8.680 93 9.262Q92.781 9.844 92.781 10.641L92.781 10.641Q92.781 11.430 93.004 12.020Q93.227 12.609 93.648 12.938Q94.070 13.266 94.664 13.266ZM104.523 15.172L104.523 15.172Q103.188 15.172 102.219 14.625Q101.250 14.078 100.730 13.070Q100.211 12.063 100.211 10.680L100.211 10.680Q100.211 9.328 100.727 8.313Q101.242 7.297 102.188 6.727Q103.133 6.156 104.406 6.156L104.406 6.156Q105.266 6.156 106.008 6.430Q106.750 6.703 107.313 7.254Q107.875 7.805 108.191 8.633Q108.508 9.461 108.508 10.586L108.508 10.586L108.508 11.242L102.531 11.242Q102.555 11.906 102.789 12.375L102.789 12.375Q103.039 12.891 103.496 13.148Q103.953 13.406 104.563 13.406L104.563 13.406Q104.977 13.406 105.313 13.289Q105.648 13.172 105.887 12.941Q106.125 12.711 106.250 12.375L106.250 12.375L108.375 12.773Q108.164 13.492 107.641 14.035Q107.117 14.578 106.332 14.875Q105.547 15.172 104.523 15.172ZM102.547 9.773L102.547 9.773L106.250 9.773Q106.203 9.336 106.063 8.977L106.063 8.977Q105.852 8.477 105.441 8.199Q105.031 7.922 104.430 7.922L104.430 7.922Q103.820 7.922 103.395 8.203Q102.969 8.484 102.750 8.961L102.750 8.961Q102.586 9.328 102.547 9.773ZM112.453 9.945L112.453 9.945L112.453 15L110.109 15L110.109 6.266L112.320 6.266L112.352 8.070Q112.688 7.242 113.266 6.750L113.266 6.750Q113.961 6.156 115.070 6.156L115.070 6.156Q115.977 6.156 116.652 6.551Q117.328 6.945 117.699 7.684Q118.070 8.422 118.070 9.445L118.070 9.445L118.070 15L115.727 15L115.727 9.852Q115.727 9.039 115.309 8.578Q114.891 8.117 114.148 8.117L114.148 8.117Q113.656 8.117 113.270 8.332Q112.883 8.547 112.668 8.953Q112.453 9.359 112.453 9.945ZM123.539 15.172L123.539 15.172Q122.484 15.172 121.672 14.871Q120.859 14.570 120.344 13.996Q119.828 13.422 119.680 12.609L119.680 12.609L121.859 12.234Q122.031 12.844 122.461 13.148Q122.891 13.453 123.609 13.453L123.609 13.453Q124.281 13.453 124.668 13.199Q125.055 12.945 125.055 12.555L125.055 12.555Q125.055 12.211 124.777 11.992Q124.500 11.773 123.930 11.656L123.930 11.656L122.422 11.344Q121.156 11.086 120.531 10.465Q119.906 9.844 119.906 8.867L119.906 8.867Q119.906 8.023 120.367 7.418Q120.828 6.813 121.648 6.484Q122.469 6.156 123.578 6.156L123.578 6.156Q124.609 6.156 125.367 6.441Q126.125 6.727 126.594 7.250Q127.063 7.773 127.219 8.484L127.219 8.484L125.141 8.852Q125.008 8.406 124.629 8.121Q124.250 7.836 123.609 7.836L123.609 7.836Q123.031 7.836 122.641 8.078Q122.250 8.320 122.250 8.727L122.250 8.727Q122.250 9.055 122.504 9.281Q122.758 9.508 123.375 9.633L123.375 9.633L124.945 9.945Q126.211 10.203 126.828 10.785Q127.445 11.367 127.445 12.305L127.445 12.305Q127.445 13.164 126.945 13.809Q126.445 14.453 125.566 14.813Q124.688 15.172 123.539 15.172ZM132.977 15.172L132.977 15.172Q131.641 15.172 130.672 14.625Q129.703 14.078 129.184 13.070Q128.664 12.063 128.664 10.680L128.664 10.680Q128.664 9.328 129.180 8.313Q129.695 7.297 130.641 6.727Q131.586 6.156 132.859 6.156L132.859 6.156Q133.719 6.156 134.461 6.430Q135.203 6.703 135.766 7.254Q136.328 7.805 136.645 8.633Q136.961 9.461 136.961 10.586L136.961 10.586L136.961 11.242L130.984 11.242Q131.008 11.906 131.242 12.375L131.242 12.375Q131.492 12.891 131.949 13.148Q132.406 13.406 133.016 13.406L133.016 13.406Q133.430 13.406 133.766 13.289Q134.102 13.172 134.340 12.941Q134.578 12.711 134.703 12.375L134.703 12.375L136.828 12.773Q136.617 13.492 136.094 14.035Q135.570 14.578 134.785 14.875Q134 15.172 132.977 15.172ZM131 9.773L131 9.773L134.703 9.773Q134.656 9.336 134.516 8.977L134.516 8.977Q134.305 8.477 133.895 8.199Q133.484 7.922 132.883 7.922L132.883 7.922Q132.273 7.922 131.848 8.203Q131.422 8.484 131.203 8.961L131.203 8.961Q131.039 9.328 131 9.773ZM145.500 5.336L141.938 5.336L141.938 3.359L151.445 3.359L151.445 5.336L147.891 5.336L147.891 15L145.500 15L145.500 5.336ZM155.375 15L153.031 15L153.031 6.266L155.297 6.266L155.297 7.789L155.391 7.789Q155.633 6.977 156.199 6.563Q156.766 6.148 157.500 6.148L157.500 6.148Q157.680 6.148 157.891 6.168Q158.102 6.188 158.258 6.227L158.258 6.227L158.258 8.320Q158.102 8.266 157.805 8.234Q157.508 8.203 157.242 8.203L157.242 8.203Q156.711 8.203 156.281 8.434Q155.852 8.664 155.613 9.074Q155.375 9.484 155.375 10.031L155.375 10.031L155.375 15ZM161.984 15.172L161.984 15.172Q161.156 15.172 160.496 14.879Q159.836 14.586 159.457 14.004Q159.078 13.422 159.078 12.555L159.078 12.555Q159.078 11.828 159.348 11.336Q159.617 10.844 160.082 10.547Q160.547 10.250 161.137 10.094Q161.727 9.938 162.375 9.875L162.375 9.875Q163.133 9.797 163.598 9.730Q164.063 9.664 164.277 9.520Q164.492 9.375 164.492 9.094L164.492 9.094L164.492 9.055Q164.492 8.680 164.336 8.422Q164.180 8.164 163.871 8.027Q163.563 7.891 163.125 7.891L163.125 7.891Q162.672 7.891 162.336 8.027Q162 8.164 161.789 8.391Q161.578 8.617 161.477 8.898L161.477 8.898L159.328 8.547Q159.555 7.781 160.078 7.250Q160.602 6.719 161.379 6.438Q162.156 6.156 163.133 6.156L163.133 6.156Q163.836 6.156 164.500 6.324Q165.164 6.492 165.691 6.844Q166.219 7.195 166.527 7.762Q166.836 8.328 166.836 9.117L166.836 9.117L166.836 15L164.617 15L164.617 13.789L164.539 13.789Q164.328 14.195 163.977 14.504Q163.625 14.813 163.129 14.992Q162.633 15.172 161.984 15.172ZM162.648 13.523L162.648 13.523Q163.203 13.523 163.621 13.305Q164.039 13.086 164.273 12.711Q164.508 12.336 164.508 11.875L164.508 11.875L164.508 10.930Q164.406 11.008 164.195 11.070Q163.984 11.133 163.727 11.180Q163.469 11.227 163.219 11.266Q162.969 11.305 162.773 11.328L162.773 11.328Q162.344 11.391 162.016 11.531Q161.688 11.672 161.508 11.902Q161.328 12.133 161.328 12.492L161.328 12.492Q161.328 12.828 161.500 13.059Q161.672 13.289 161.969 13.406Q162.266 13.523 162.648 13.523ZM172.742 15.172L172.742 15.172Q171.422 15.172 170.465 14.605Q169.508 14.039 168.988 13.027Q168.469 12.016 168.469 10.672L168.469 10.672Q168.469 9.313 168.988 8.301Q169.508 7.289 170.465 6.723Q171.422 6.156 172.742 6.156L172.742 6.156Q173.516 6.156 174.172 6.359Q174.828 6.563 175.336 6.938Q175.844 7.313 176.172 7.852Q176.500 8.391 176.625 9.063L176.625 9.063L174.445 9.469Q174.375 9.125 174.227 8.855Q174.078 8.586 173.867 8.395Q173.656 8.203 173.379 8.102Q173.102 8 172.766 8L172.766 8Q172.141 8 171.715 8.336Q171.289 8.672 171.074 9.273Q170.859 9.875 170.859 10.664L170.859 10.664Q170.859 11.438 171.074 12.039Q171.289 12.641 171.715 12.984Q172.141 13.328 172.766 13.328L172.766 13.328Q173.102 13.328 173.383 13.223Q173.664 13.117 173.883 12.918Q174.102 12.719 174.250 12.438Q174.398 12.156 174.461 11.805L174.461 11.805L176.641 12.203Q176.516 12.898 176.188 13.441Q175.859 13.984 175.352 14.375Q174.844 14.766 174.184 14.969Q173.523 15.172 172.742 15.172ZM180.594 15L178.250 15L178.250 3.359L180.594 3.359L180.594 9.625L180.727 9.625L183.586 6.266L186.297 6.266L183.031 10.063L186.461 15L183.703 15L181.266 11.445L180.594 12.195L180.594 15ZM191.477 15.172L191.477 15.172Q190.141 15.172 189.172 14.625Q188.203 14.078 187.684 13.070Q187.164 12.063 187.164 10.680L187.164 10.680Q187.164 9.328 187.680 8.313Q188.195 7.297 189.141 6.727Q190.086 6.156 191.359 6.156L191.359 6.156Q192.219 6.156 192.961 6.430Q193.703 6.703 194.266 7.254Q194.828 7.805 195.145 8.633Q195.461 9.461 195.461 10.586L195.461 10.586L195.461 11.242L189.484 11.242Q189.508 11.906 189.742 12.375L189.742 12.375Q189.992 12.891 190.449 13.148Q190.906 13.406 191.516 13.406L191.516 13.406Q191.930 13.406 192.266 13.289Q192.602 13.172 192.840 12.941Q193.078 12.711 193.203 12.375L193.203 12.375L195.328 12.773Q195.117 13.492 194.594 14.035Q194.070 14.578 193.285 14.875Q192.500 15.172 191.477 15.172ZM189.500 9.773L189.500 9.773L193.203 9.773Q193.156 9.336 193.016 8.977L193.016 8.977Q192.805 8.477 192.395 8.199Q191.984 7.922 191.383 7.922L191.383 7.922Q190.773 7.922 190.348 8.203Q189.922 8.484 189.703 8.961L189.703 8.961Q189.539 9.328 189.500 9.773ZM199.406 15L197.063 15L197.063 6.266L199.328 6.266L199.328 7.789L199.422 7.789Q199.664 6.977 200.230 6.563Q200.797 6.148 201.531 6.148L201.531 6.148Q201.711 6.148 201.922 6.168Q202.133 6.188 202.289 6.227L202.289 6.227L202.289 8.320Q202.133 8.266 201.836 8.234Q201.539 8.203 201.273 8.203L201.273 8.203Q200.742 8.203 200.313 8.434Q199.883 8.664 199.645 9.074Q199.406 9.484 199.406 10.031L199.406 10.031L199.406 15Z" fill="url(#crisp-grad)"/></svg>